<?xml version="1.0" encoding="UTF-8"?>
<svg id="svg8" width="43pt" height="43pt" style="isolation:isolate" version="1.1" viewBox="0 0 43 43" xmlns="http://www.w3.org/2000/svg">
 <g id="g6" fill="#9fbac6" fill-rule="evenodd">
  <path id="path2" d="m16.863 38.458h23.125v-4.625c0-3.404-2.762-6.166-6.166-6.166h-9.25c-3.404 0-6.167 2.762-6.167 6.166v4.625h-1.542v-4.625c0-4.255 3.454-7.708 7.709-7.708h9.25c4.255 0 7.708 3.453 7.708 7.708v6.167h-24.667v-1.542zm12.334-26.208c3.404 0 6.166 2.763 6.166 6.167s-2.762 6.166-6.166 6.166-6.167-2.762-6.167-6.166 2.763-6.167 6.167-6.167zm0 1.542c2.553 0 4.625 2.072 4.625 4.625s-2.072 4.625-4.625 4.625-4.625-2.072-4.625-4.625 2.072-4.625 4.625-4.625z"/>
  <path id="path4" d="m17.767 10.685-5.505-5.505v-2.18l8.456 8.456-8.456 8.458v-2.182l5.505-5.505h-16.297v-1.542h16.297z"/>
 </g>
</svg>
