<?xml version="1.0" encoding="UTF-8"?>
<svg id="svg16" width="34pt" height="34pt" style="isolation:isolate" version="1.1" viewBox="0 0 34 34" xmlns="http://www.w3.org/2000/svg">
 <defs id="defs20">
  <linearGradient id="linearGradient859" x1=".5" x2="33.5" y1="17" y2="17" gradientUnits="userSpaceOnUse">
   <stop id="stop2" stop-color="#deb68c" offset="0"/>
   <stop id="stop4" stop-color="#deb68c" offset="1"/>
  </linearGradient>
 </defs>
 <path id="path14-5" d="m9.879 4.5491c2.187-1.141 4.634-1.737 7.121-1.737 2.647 0 5.251 0.676 7.547 1.967 0.34 0.192 0.778 0.078 0.976-0.255s0.082-0.76-0.259-0.952c-2.511-1.416-5.366-2.155-8.264-2.155-2.838 0-5.626 0.713-8.099 2.066l0.354-2.034c0.077-0.443-0.231-0.863-0.686-0.938-0.456-0.074-0.888 0.225-0.965 0.667l-0.498 2.895c-0.154 0.896 0.449 1.743 1.347 1.89l3.023 0.497c0.456 0.075 0.888-0.224 0.965-0.667s-0.231-0.863-0.686-0.938zm-5.892 20.289c0.197 0.331 0.082 0.757-0.259 0.952-0.34 0.194-0.781 0.083-0.983-0.248-1.47-2.455-2.245-5.245-2.245-8.084 0-2.552 0.624-5.063 1.822-7.337 0.182-0.342 0.616-0.477 0.969-0.3 0.352 0.177 0.49 0.599 0.308 0.942-1.097 2.071-1.664 4.366-1.664 6.695 0 2.595 0.703 5.141 2.052 7.38zm20.603 5.272c0.341-0.192 0.779-0.08 0.979 0.251s0.086 0.76-0.254 0.956c-2.526 1.43-5.395 2.183-8.315 2.183-2.819 0-5.603-0.704-8.063-2.044-0.345-0.188-0.467-0.613-0.273-0.948s0.631-0.457 0.976-0.272c2.245 1.227 4.785 1.869 7.36 1.869 2.669 0 5.287-0.683 7.59-1.995zm5.99-18.991c-0.17-0.347-0.019-0.763 0.337-0.928 0.357-0.166 0.787-0.019 0.962 0.328 1.069 2.162 1.621 4.533 1.621 6.939 0 2.734-0.717 5.42-2.088 7.812-0.194 0.335-0.631 0.455-0.975 0.268-0.345-0.186-0.47-0.613-0.28-0.952 1.255-2.176 1.908-4.631 1.908-7.128 0-2.197-0.502-4.359-1.485-6.339zm-2.46-3.774c0-0.385 0.321-0.697 0.717-0.697s0.717 0.312 0.717 0.697-0.321 0.698-0.717 0.698-0.717-0.313-0.717-0.698zm-0.718 20.924c0-0.385 0.322-0.697 0.718-0.697s0.717 0.312 0.717 0.697-0.321 0.698-0.717 0.698-0.718-0.313-0.718-0.698zm-22.956 0c0-0.385 0.321-0.697 0.717-0.697s0.717 0.312 0.717 0.697-0.321 0.698-0.717 0.698-0.717-0.313-0.717-0.698z" fill="url(#linearGradient859)" fill-rule="evenodd" style="fill:#deb68c;isolation:isolate"/>
 <ellipse id="path921" cx="17" cy="17" rx="7.548" ry="7.548" style="fill:none;isolation:isolate;stroke-linecap:round;stroke-linejoin:round;stroke-miterlimit:0;stroke-width:1.3;stroke:#deb68c"/>
</svg>
