<?xml version="1.0" encoding="UTF-8"?>
<svg id="svg9" width="34pt" height="34pt" style="isolation:isolate" version="1.1" viewBox="0 0 34 34" xmlns="http://www.w3.org/2000/svg">
 <defs id="defs13">
  <linearGradient id="linearGradient847" x1=".5" x2="33.5" y1="17" y2="17" gradientTransform="matrix(33 0 0 33 .5 .5)" gradientUnits="userSpaceOnUse">
   <stop id="stop2" stop-color="#d19494" offset="0"/>
   <stop id="stop4" stop-color="#d19494" offset="1"/>
  </linearGradient>
 </defs>
 <path id="path7" d="m29.526 8.628c-0.222-0.329-0.135-0.775 0.193-0.997 0.329-0.222 0.776-0.135 0.998 0.194 1.815 2.718 2.783 5.911 2.783 9.175 0 4.376-1.736 8.573-4.835 11.665-3.092 3.099-7.289 4.835-11.665 4.835s-8.573-1.736-11.665-4.835c-3.099-3.092-4.835-7.289-4.835-11.665s1.736-8.573 4.835-11.665c3.092-3.092 7.289-4.835 11.665-4.835 2.453 0 4.885 0.545 7.102 1.607 0.357 0.17 0.508 0.598 0.337 0.954-0.17 0.356-0.597 0.508-0.954 0.337-2.023-0.961-4.24-1.463-6.485-1.463-3.996 0-7.827 1.585-10.653 4.412-2.827 2.826-4.412 6.657-4.412 10.653s1.585 7.827 4.412 10.653c2.826 2.827 6.657 4.412 10.653 4.412s7.827-1.585 10.653-4.412c2.827-2.826 4.412-6.657 4.412-10.653 0-2.984-0.882-5.897-2.539-8.372zm-12.378-2.095c0.414 0 0.75 0.336 0.75 0.75v10.415c0 0.414-0.336 0.75-0.75 0.75s-0.75-0.336-0.75-0.75v-10.415c0-0.414 0.336-0.75 0.75-0.75zm3.227 4.928c-0.368-0.186-0.516-0.636-0.33-1.005 0.186-0.368 0.637-0.516 1.005-0.33 1.485 0.75 2.737 1.898 3.607 3.315 0.878 1.418 1.343 3.045 1.343 4.71 0 0.413-0.03 0.818-0.082 1.223-0.293 2.152-1.358 4.132-2.993 5.565-1.643 1.432-3.742 2.22-5.918 2.227-0.405 0-0.817-0.03-1.214-0.082-2.161-0.293-4.141-1.358-5.573-2.993-1.433-1.642-2.22-3.742-2.22-5.917 0-0.413 0.022-0.818 0.082-1.223 0.421-3.127 2.461-5.805 5.356-7.057 0.38-0.162 0.822 0.015 0.986 0.393 0.163 0.379-0.01 0.821-0.386 0.987-2.415 1.042-4.118 3.277-4.47 5.88-0.046 0.337-0.068 0.675-0.068 1.02 0 1.807 0.66 3.562 1.853 4.927 1.192 1.365 2.842 2.25 4.634 2.49 0.338 0.045 0.683 0.075 1.02 0.075 1.816-7e-3 3.563-0.66 4.928-1.86 1.365-1.192 2.25-2.842 2.498-4.635 0.044-0.337 0.067-0.675 0.067-1.02 0-2.82-1.605-5.415-4.125-6.69z" fill="url(#linearGradient847)" fill-rule="evenodd"/>
</svg>
