<?xml version="1.0" encoding="UTF-8"?>
<svg id="svg9" width="34pt" height="34pt" style="isolation:isolate" version="1.1" viewBox="0 0 34 34" xmlns="http://www.w3.org/2000/svg">
 <g id="g3810">
  <path id="path117" d="m15.237 7.2447c-4.6543 0.825-8.1701 4.8827-8.1701 9.7553 0 5.4818 4.4512 9.933 9.933 9.933 4.8675 0 8.9227-3.5081 9.7528-8.1561l0.0025-0.01397c-1.3504 0.98239-3.0043 1.5484-4.7888 1.5484-4.5679 0-8.2779-3.7099-8.2779-8.2779 0-1.7846 0.56608-3.4384 1.5484-4.7888zm11.997 10.056 0.49627-0.60289 0.03046 0.30208-0.10281 1.0179-0.0013 0.0165c-0.47216 5.4589-5.0693 9.7262-10.656 9.7262-5.9387 0-10.761-4.8218-10.761-10.761 0-5.5922 4.2748-10.194 9.7427-10.658l1.0179-0.10281 0.30208 0.030462-0.60289 0.49627-0.297 0.36173-0.01395 0.01397c-1.1753 1.2971-1.8722 3.0131-1.8722 4.8917 0 4.1111 3.3394 7.4503 7.4503 7.4503 1.8848 0 3.6071-0.70316 4.9056-1.8861z" fill-rule="evenodd" stroke="#aac69f" stroke-linejoin="round" stroke-miterlimit="1.4142" stroke-width=".39836" style="fill:#aac69f;isolation:isolate"/>
  <path id="path124" d="m29.526 8.6281c-0.22211-0.32873-0.13581-0.7755 0.19292-0.99761 0.32873-0.22084 0.7755-0.13453 0.99761 0.19419 1.815 2.7187 2.7834 5.9108 2.7834 9.1753 0 4.3763-1.7363 8.5723-4.8358 11.664-3.0919 3.0994-7.2879 4.8358-11.664 4.8358s-8.5723-1.7363-11.664-4.8358c-3.0994-3.0919-4.8358-7.2879-4.8358-11.664 0-4.3763 1.7363-8.5723 4.8358-11.664 3.0919-3.0932 7.2879-4.8358 11.664-4.8358 2.4534 0 4.8853 0.54577 7.1027 1.6069 0.35539 0.17008 0.50642 0.59781 0.33634 0.95447-0.17008 0.35666-0.59781 0.50769-0.95319 0.33634-2.0231-0.96081-4.2405-1.4634-6.4858-1.4634-3.9956 0-7.8274 1.5866-10.653 4.4132-2.8266 2.8253-4.4132 6.6572-4.4132 10.653 0 3.9955 1.5866 7.8274 4.4132 10.653 2.8253 2.8266 6.6572 4.4132 10.653 4.4132 3.9956 0 7.8274-1.5866 10.653-4.4132 2.8266-2.8253 4.4132-6.6572 4.4132-10.653 0-2.9839-0.88339-5.8969-2.5397-8.3719z" stroke-width="1.2692" style="fill:#aac69f;isolation:isolate;stroke-width:1.269"/>
 </g>
</svg>
